<svg xmlns="http://www.w3.org/2000/svg" xmlns:xlink="http://www.w3.org/1999/xlink" version="1.1" id="single_color" x="0px" y="0px" viewBox="0 0 800 800" enable-background="new 0 0 800 800" xml:space="preserve">
<rect x="-12.4" y="-18.4" display="none" fill="#58595B" width="835.5" height="844.5"/>
<g>
	<radialGradient id="SVGID_1_" cx="398.6" cy="396.3" r="154.4" gradientUnits="userSpaceOnUse">
		<stop offset="0" style="stop-color:#FFFFFF"/>
		<stop offset="1" style="stop-color:#FFFFFF;stop-opacity:0"/>
	</radialGradient>
	<path fill="url(#SVGID_1_)" d="M412.6 550.1c-84.9 7.8-160.1-54.8-167.8-139.8s54.8-160.1 139.8-167.8s160.1 54.8 167.8 139.8 C560.1 467.2 497.6 542.3 412.6 550.1z"/>
	<circle fill="#F1F2F2" cx="415" cy="409.3" r="82.4"/>
	<path fill="none" d="M373.4 403.4c15.5 0.9 29.8 7.1 42.3 15.5c9.3-11.6 36.1-32.5 65-34.4c20.3-1.3 44.2 0.8 65.8 11.5 c0.3-6.7 0.2-13.4-0.4-20.2c-7.5-81.9-79.9-142.2-161.8-134.7c-81.9 7.5-142.2 79.9-134.7 161.8c3.3 36.5 19.6 68.6 43.8 92.5 C293.1 434.9 338.3 401.3 373.4 403.4z"/>
	<path fill="none" d="M374.6 373.3c16.3 2.9 30.7 11.1 43 21.5c22.1-22 46.2-36.2 70.3-32c26.2 4.6 48.1 21.5 64.8 40.1 c8-81.8-48.2-157.2-130.4-171.6c-86.3-15.1-168.5 42.5-183.7 128.8c-7.1 40.5 1.8 80.1 22.2 112.3 C288 425.3 331.6 365.7 374.6 373.3z"/>
	<path fill="#D1D3D4" d="M254.2 461.2c16.8 33.9 60.5 73.9 84.8 85.2c18.9-63.3 45.6-107.6 88.7-151.5c-10.5-3.8-48.1-3.9-84.6 7.4 C305.1 414 268.1 437.5 254.2 461.2z"/>
	<path fill="#A7A9AC" d="M427.6 390.4c-47.5 46.3-85.6 125.1-95.1 145.5c12.9 5.7 26.7 10 41.3 12.6c48 8.4 114.2-4.8 152.4-47.4 c36.3-40.5 39.7-119.6 39.9-121.7c-18.2-19.9-32.2-27.9-61.1-28.7C478.6 349.8 451.5 367.1 427.6 390.4z"/>
	<path fill="#FFFFFF" d="M405.3 228.7c-96.7 0-175.1 78.4-175.1 175.1c0 96.7 78.4 175.1 175.1 175.1c96.7 0 175.1-78.4 175.1-175.1 C580.4 307.1 502 228.7 405.3 228.7z M411.4 547.6c-83.8 7.6-157.9-54.1-165.5-137.8s54.1-157.9 137.8-165.5 s157.9 54.1 165.5 137.8C556.9 465.8 495.1 539.9 411.4 547.6z"/>
</g>
</svg>
