<svg xmlns="http://www.w3.org/2000/svg" xmlns:xlink="http://www.w3.org/1999/xlink" version="1.1" x="0px" y="0px" viewBox="0 0 514.6 459.5" enable-background="new 0 0 514.6 459.5" xml:space="preserve">
<g id="single_color" display="none">
	<rect x="-150" y="-180.4" display="inline" fill="#58595B" width="835.5" height="844.5"/>
	<g display="inline">
		<radialGradient id="SVGID_1_" cx="261" cy="234.3" r="154.4" gradientUnits="userSpaceOnUse">
			<stop offset="0" style="stop-color:#FFFFFF"/>
			<stop offset="1" style="stop-color:#FFFFFF;stop-opacity:0"/>
		</radialGradient>
		<path fill="url(#SVGID_1_)" d="M275 388.1c-84.9 7.8-160.1-54.8-167.8-139.8S162 88.2 247 80.5S407 135.3 414.8 220.2 C422.5 305.2 360 380.3 275 388.1z"/>
		<circle fill="#F1F2F2" cx="277.4" cy="247.3" r="82.4"/>
		<path fill="none" d="M235.8 241.3c15.5 0.9 29.8 7.1 42.3 15.5c9.3-11.6 36.1-32.5 65-34.4c20.3-1.3 44.2 0.8 65.8 11.5 c0.3-6.7 0.2-13.4-0.4-20.2C401 131.7 328.6 71.4 246.7 78.9c-81.9 7.5-142.2 79.9-134.7 161.8c3.3 36.5 19.6 68.6 43.8 92.5 C155.5 272.9 200.7 239.2 235.8 241.3z"/>
		<path fill="none" d="M237 211.3c16.3 2.9 30.7 11.1 43 21.5c22.1-22 46.2-36.2 70.3-32c26.2 4.6 48.1 21.5 64.8 40.1 c8-81.8-48.2-157.2-130.4-171.6C198.3 54.1 116.1 111.8 101 198.1c-7.1 40.5 1.8 80.1 22.2 112.3C150.4 263.2 194 203.7 237 211.3 z"/>
		<path fill="#D1D3D4" d="M116.6 299.2c16.8 33.9 60.5 73.9 84.8 85.2c18.9-63.3 45.6-107.6 88.7-151.5c-10.5-3.8-48.1-3.9-84.6 7.4 C167.5 252 130.5 275.5 116.6 299.2z"/>
		<path fill="#A7A9AC" d="M290 228.4c-47.5 46.3-85.6 125.1-95.1 145.5c12.9 5.7 26.7 10 41.3 12.6c48 8.4 114.2-4.8 152.4-47.4 c36.3-40.5 39.7-119.6 39.9-121.7c-18.2-19.9-32.2-27.9-61.1-28.7C341 187.8 313.9 205.1 290 228.4z"/>
		<path fill="#FFFFFF" d="M267.7 66.7c-96.7 0-175.1 78.4-175.1 175.1c0 96.7 78.4 175.1 175.1 175.1c96.7 0 175.1-78.4 175.1-175.1 C442.8 145.1 364.4 66.7 267.7 66.7z M273.8 385.6c-83.8 7.6-157.9-54.1-165.5-137.8S162.3 89.9 246.1 82.2S404 136.3 411.6 220 C419.2 303.8 357.5 377.9 273.8 385.6z"/>
	</g>
</g>
<g id="full_color">
	<rect x="-150" y="-180.4" display="none" fill="#58595B" width="835.5" height="844.5"/>
	<path fill="#DBD960" d="M286.1 199.8c29.4-25.1 64.4-43.9 102.8-54.3C381.6 63.9 313.2 0 229.8 0C141.6 0 70.1 71.5 70.1 159.7 c0 22 4.5 43.1 12.5 62.2c38-21 81.8-32.9 128.3-32.9C237 189 262.2 192.7 286.1 199.8z"/>
	<path fill="#BEBC56" d="M286.1 199.8c-23.8-7-49.1-10.8-75.2-10.8c-46.5 0-90.2 11.9-128.3 32.9C50.9 239.3 23.2 263.1 1 291.4 c33 83.2 106.8 145.8 196.8 163.2c-3.4-16.9-5.2-34.4-5.2-52.4C192.6 321.2 228.9 248.6 286.1 199.8z"/>
	<path fill="#A4A349" d="M388.9 145.4c-38.4 10.4-73.4 29.2-102.8 54.3c-57.2 48.8-93.5 121.4-93.5 202.5c0 17.9 1.8 35.4 5.2 52.4 c16.4 3.2 33.3 4.8 50.7 4.8c147 0 266.1-119.1 266.1-266.1c0-17.9-1.8-35.4-5.2-52.4c-16.4-3.2-33.3-4.8-50.7-4.8 C434.6 136.1 411.1 139.4 388.9 145.4z"/>
</g>
<g id="full_color_with_type" display="none">
	<rect x="-150" y="-180.4" fill="#58595B" width="835.5" height="844.5"/>
	<g display="inline">
		<radialGradient id="SVGID_2_" cx="80.7" cy="230.6" r="76.8" gradientUnits="userSpaceOnUse">
			<stop offset="0" style="stop-color:#FFDE17;stop-opacity:0.2"/>
			<stop offset="0.9597" style="stop-color:#FFDE17;stop-opacity:0.9678"/>
			<stop offset="1" style="stop-color:#FFDE17"/>
		</radialGradient>
		<path fill="url(#SVGID_2_)" d="M87.7 307.1C45.4 310.9 8 279.8 4.2 237.5s27.3-79.6 69.5-83.5s79.6 27.3 83.5 69.5 C161 265.8 129.9 303.2 87.7 307.1z"/>
		<path fill="none" d="M68.1 234.1c7.7 0.5 14.8 3.5 21.1 7.7c4.6-5.8 18-16.2 32.3-17.1c10.1-0.7 22 0.4 32.7 5.7 c0.1-3.3 0.1-6.7-0.2-10.1c-3.7-40.7-39.7-70.7-80.5-67C32.9 157 2.9 193 6.6 233.7c1.7 18.1 9.7 34.1 21.8 46 C28.2 249.8 50.7 233 68.1 234.1z"/>
		<path fill="none" d="M68.7 219.1c8.1 1.4 15.3 5.5 21.4 10.7c11-10.9 23-18 35-15.9c13.1 2.3 23.9 10.7 32.2 20 c4-40.7-24-78.2-64.9-85.4c-42.9-7.5-83.8 21.2-91.4 64.1c-3.5 20.1 0.9 39.8 11.1 55.8C25.7 245 47.3 215.4 68.7 219.1z"/>
		<radialGradient id="SVGID_3_" cx="88.8" cy="237" r="41" gradientUnits="userSpaceOnUse">
			<stop offset="0" style="stop-color:#F9ED32"/>
			<stop offset="1" style="stop-color:#F7941E"/>
		</radialGradient>
		<circle fill="url(#SVGID_3_)" cx="88.8" cy="237" r="41"/>
		<linearGradient id="SVGID_4_" gradientUnits="userSpaceOnUse" x1="26.4" y1="237.2" x2="88.7" y2="278">
			<stop offset="0" style="stop-color:#8DC63F"/>
			<stop offset="1" style="stop-color:#66952E"/>
		</linearGradient>
		<path fill="url(#SVGID_4_)" d="M8.9 262.9c8.4 16.9 30.1 36.8 42.2 42.4c9.4-31.5 22.7-53.5 44.1-75.4c-5.2-1.9-23.9-1.9-42.1 3.7 C34.1 239.4 15.7 251.1 8.9 262.9z"/>
		<linearGradient id="SVGID_5_" gradientUnits="userSpaceOnUse" x1="79.6" y1="227.3" x2="130.3" y2="292.3">
			<stop offset="0" style="stop-color:#8DC63F"/>
			<stop offset="0.1591" style="stop-color:#89C23D"/>
			<stop offset="0.3412" style="stop-color:#83B93A"/>
			<stop offset="0.5346" style="stop-color:#78AB36"/>
			<stop offset="0.7358" style="stop-color:#68972E"/>
			<stop offset="0.9413" style="stop-color:#537D24"/>
			<stop offset="1" style="stop-color:#4C7520"/>
		</linearGradient>
		<path fill="url(#SVGID_5_)" d="M95.1 227.6c-23.6 23-42.6 62.2-47.3 72.4c6.4 2.9 13.3 5 20.5 6.3c23.9 4.2 56.8-2.4 75.8-23.6 c18.1-20.2 19.8-59.5 19.9-60.5c-9.1-9.9-16-13.9-30.4-14.3C120.5 207.4 107 216.1 95.1 227.6z"/>
		<path fill="#00A5D4" d="M84 147.2c-48.1 0-87.1 39-87.1 87.1c0 48.1 39 87.1 87.1 87.1c48.1 0 87.1-39 87.1-87.1 C171.1 186.2 132.1 147.2 84 147.2z M87 305.8c-41.7 3.8-78.5-26.9-82.3-68.6s26.9-78.5 68.6-82.3c41.7-3.8 78.5 26.9 82.3 68.6 C159.4 265.2 128.7 302 87 305.8z"/>
	</g>
	
		<text transform="matrix(1 0 0 1 182.5079 233.3666)" display="inline" font-family="'QuireSansPro-Light'" font-size="40.8484" letter-spacing="3">HEART</text>
	
		<text transform="matrix(1 0 0 1 182.5079 277.9229)" display="inline" font-family="'QuireSansPro-Light'" font-size="40.8484" letter-spacing="3">THOUSAND HILLS</text>
	
		<text transform="matrix(1 0 0 1 323.1745 233.3663)" display="inline" font-family="'QuireSansPro-Bold'" font-size="22.7323" letter-spacing="1">OF A</text>
</g>
</svg>
