<svg xmlns="http://www.w3.org/2000/svg" xmlns:xlink="http://www.w3.org/1999/xlink" version="1.1" x="0px" y="0px" viewBox="0 0 17 17" enable-background="new 0 0 17 17" xml:space="preserve"><path fill="#C0C0AF" d="M13.7 0H3.3C1.5 0 0 1.5 0 3.3v3.5v7C0 15.5 1.5 17 3.3 17h10.4c1.8 0 3.3-1.5 3.3-3.3v-7V3.3 C17 1.5 15.5 0 13.7 0z M14.7 2L15 2v0.4v2.5l-2.9 0l0-2.9L14.7 2z M6.1 6.8C6.6 6 7.5 5.5 8.5 5.5s1.9 0.5 2.4 1.2 c0.4 0.5 0.6 1.1 0.6 1.7c0 1.7-1.3 3-3 3s-3-1.3-3-3C5.5 7.9 5.7 7.3 6.1 6.8z M15.4 13.7c0 0.9-0.7 1.6-1.6 1.6H3.3 c-0.9 0-1.6-0.7-1.6-1.6v-7h2.5C4 7.3 3.9 7.9 3.9 8.5c0 2.6 2.1 4.7 4.7 4.7c2.6 0 4.7-2.1 4.7-4.7c0-0.6-0.1-1.2-0.3-1.7h2.5V13.7 z"/></svg>